<svg width="284" height="259" viewBox="0 0 284 259" fill="none" xmlns="http://www.w3.org/2000/svg">
<g clip-path="url(#clip0_1930_5995)">
<path d="M244.395 23.7832L6.77539 93.0156L13.0693 114.617L250.689 45.385L244.395 23.7832Z" fill="#3F3D56"/>
<path d="M35.1649 192.241L0.141671 72.0345C-0.117981 71.1433 -0.0129595 70.1854 0.433618 69.3716C0.880195 68.5578 1.63175 67.9548 2.52296 67.6951L234.382 0.14093C235.273 -0.11785 236.231 -0.0124723 237.044 0.433945C237.858 0.880362 238.461 1.63134 238.721 2.52203L269.749 109.016L268.789 109.296L237.761 2.80182C237.575 2.16587 237.144 1.62976 236.563 1.31094C235.982 0.992123 235.298 0.916583 234.662 1.10088L2.80268 68.6551C2.1661 68.8406 1.62928 69.2713 1.3103 69.8526C0.991313 70.4339 0.916297 71.1181 1.10175 71.7547L36.125 191.961L35.1649 192.241Z" fill="#3F3D56"/>
<path d="M218.431 109.51C217.728 109.509 217.044 109.281 216.481 108.859C215.918 108.437 215.507 107.844 215.31 107.169L209.435 87.007C209.195 86.1795 209.293 85.2906 209.708 84.5352C210.122 83.7798 210.82 83.2197 211.647 82.9777L231.808 77.1035C232.636 76.8634 233.525 76.9614 234.28 77.376C235.036 77.7905 235.596 78.4878 235.838 79.3149L241.712 99.4765C241.952 100.304 241.854 101.193 241.439 101.948C241.025 102.704 240.328 103.264 239.501 103.506L219.339 109.38C219.044 109.466 218.739 109.51 218.431 109.51Z" fill="url(#paint0_linear_1930_5995)"/>
<path d="M34.6228 72.4063C34.5624 72.1991 34.4906 71.9955 34.4077 71.7963C33.844 70.4281 32.7945 69.3164 31.461 68.675C30.1274 68.0336 28.6038 67.9076 27.183 68.3212C25.7622 68.7349 24.5444 69.659 23.7636 70.916C22.9828 72.173 22.694 73.6743 22.9528 75.1313C22.9892 75.3439 23.0376 75.5542 23.0979 75.7613C23.463 77.0076 24.222 78.102 25.2612 78.8808C26.3005 79.6596 27.5641 80.0808 28.8627 80.0813C29.4298 80.0825 29.994 80.0017 30.5378 79.8413C32.0643 79.3953 33.3515 78.3621 34.1173 76.9683C34.8831 75.5745 35.0649 73.9339 34.6228 72.4063ZM30.2578 78.8813C28.9848 79.2507 27.6172 79.1003 26.455 78.4629C25.2927 77.8256 24.4307 76.7533 24.0578 75.4813C23.9993 75.2741 23.9525 75.0638 23.9177 74.8513C23.7302 73.6508 23.9863 72.4232 24.6382 71.3979C25.2901 70.3726 26.2931 69.6198 27.4597 69.2804C28.6263 68.9409 29.8767 69.038 30.9769 69.5535C32.0771 70.069 32.9519 70.9676 33.4377 72.0813C33.5282 72.2768 33.6035 72.4791 33.6628 72.6863C34.0318 73.9593 33.8804 75.3267 33.242 76.4883C32.6036 77.6498 31.5303 78.5105 30.2578 78.8813Z" fill="url(#paint1_linear_1930_5995)"/>
<path d="M19.9067 76.6913C19.5867 75.5924 19.6175 74.4211 19.9946 73.3405C20.3718 72.2599 21.0766 71.3239 22.0109 70.6628C21.1356 70.6201 20.2627 70.7872 19.4651 71.1502C18.6675 71.5132 17.9681 72.0615 17.4253 72.7495C16.8825 73.4375 16.5119 74.2452 16.3445 75.1054C16.177 75.9656 16.2176 76.8534 16.4627 77.6948C16.7079 78.5361 17.1505 79.3067 17.7538 79.9424C18.357 80.578 19.1035 81.0603 19.9309 81.3491C20.7583 81.6378 21.6427 81.7247 22.5104 81.6025C23.3782 81.4802 24.2042 81.1524 24.9196 80.6462C23.7765 80.5904 22.6792 80.1794 21.7807 79.4705C20.8821 78.7616 20.227 77.7901 19.9067 76.6913Z" fill="url(#paint2_linear_1930_5995)"/>
<path d="M175.338 101.472C175.231 101.089 175.05 100.731 174.806 100.418C174.561 100.106 174.257 99.8443 173.911 99.6492C173.565 99.4542 173.184 99.3292 172.789 99.2816C172.395 99.2339 171.995 99.2645 171.613 99.3715L138.418 108.656L134.843 109.656H157.293L160.868 108.656L173.243 105.196C174.014 104.98 174.668 104.466 175.061 103.767C175.454 103.069 175.553 102.243 175.338 101.472Z" fill="#CCCCCC"/>
<path d="M151.853 94.5369C151.637 93.7652 151.123 93.111 150.425 92.7181C149.726 92.3253 148.9 92.2259 148.128 92.4419L98.3185 106.372C97.6225 106.569 97.0198 107.008 96.6192 107.611C96.2185 108.213 96.0463 108.939 96.1335 109.657H109.028L112.608 108.657L149.758 98.2669C150.53 98.0495 151.185 97.5346 151.577 96.8353C151.97 96.136 152.069 95.3094 151.853 94.5369Z" fill="#CCCCCC"/>
<path d="M280.085 108.654H38.585C37.657 108.655 36.7674 109.024 36.1112 109.681C35.4551 110.337 35.086 111.226 35.085 112.154V255.154C35.086 256.082 35.455 256.972 36.1112 257.628C36.7674 258.284 37.657 258.653 38.585 258.654H280.085C281.013 258.653 281.903 258.284 282.559 257.628C283.215 256.972 283.584 256.082 283.585 255.154V112.154C283.584 111.226 283.215 110.337 282.559 109.681C281.903 109.024 281.013 108.655 280.085 108.654ZM282.585 255.154C282.585 255.817 282.322 256.453 281.853 256.922C281.384 257.391 280.748 257.654 280.085 257.654H38.585C37.922 257.654 37.2862 257.391 36.8175 256.922C36.3487 256.453 36.0852 255.817 36.085 255.154V112.154C36.0852 111.491 36.3487 110.856 36.8175 110.387C37.2863 109.918 37.922 109.655 38.585 109.654H280.085C280.748 109.655 281.384 109.918 281.853 110.387C282.321 110.856 282.585 111.491 282.585 112.154V255.154Z" fill="#3F3D56"/>
<path d="M62.083 128.156C60.8963 128.156 59.7363 127.804 58.7496 127.145C57.7629 126.486 56.9939 125.549 56.5397 124.452C56.0856 123.356 55.9668 122.15 56.1983 120.986C56.4298 119.822 57.0013 118.753 57.8404 117.914C58.6795 117.075 59.7486 116.503 60.9125 116.272C62.0764 116.04 63.2828 116.159 64.3791 116.613C65.4755 117.067 66.4125 117.836 67.0718 118.823C67.7311 119.81 68.083 120.97 68.083 122.156C68.0812 123.747 67.4485 125.272 66.3236 126.397C65.1988 127.522 63.6737 128.154 62.083 128.156ZM62.083 117.156C61.0941 117.156 60.1274 117.449 59.3052 117.999C58.4829 118.548 57.8421 119.329 57.4636 120.243C57.0852 121.156 56.9862 122.162 57.1791 123.132C57.372 124.102 57.8482 124.993 58.5475 125.692C59.2467 126.391 60.1377 126.867 61.1076 127.06C62.0775 127.253 63.0828 127.154 63.9964 126.776C64.9101 126.397 65.6909 125.756 66.2404 124.934C66.7898 124.112 67.083 123.145 67.083 122.156C67.0815 120.831 66.5543 119.56 65.6169 118.622C64.6795 117.685 63.4086 117.158 62.083 117.156Z" fill="url(#paint3_linear_1930_5995)"/>
<path d="M52.7571 122.156C52.7573 121.012 53.1144 119.896 53.7788 118.964C54.4432 118.032 55.3817 117.33 56.4636 116.957C55.6352 116.671 54.7505 116.587 53.8831 116.713C53.0158 116.838 52.191 117.169 51.4774 117.678C50.7638 118.186 50.1821 118.858 49.7807 119.637C49.3793 120.416 49.1699 121.28 49.1699 122.156C49.1699 123.033 49.3793 123.896 49.7807 124.675C50.1821 125.454 50.7638 126.126 51.4774 126.635C52.191 127.144 53.0158 127.474 53.8831 127.6C54.7505 127.725 55.6352 127.641 56.4636 127.356C55.3817 126.982 54.4432 126.281 53.7788 125.349C53.1144 124.417 52.7573 123.301 52.7571 122.156Z" fill="url(#paint4_linear_1930_5995)"/>
<path d="M86.4053 193.045C85.2122 193.044 84.0684 192.569 83.2248 191.725C82.3812 190.882 81.9066 189.738 81.9053 188.545V175.045C81.9053 173.851 82.3794 172.707 83.2233 171.863C84.0672 171.019 85.2118 170.545 86.4053 170.545C87.5987 170.545 88.7433 171.019 89.5872 171.863C90.4312 172.707 90.9053 173.851 90.9053 175.045V188.545C90.9039 189.738 90.4294 190.882 89.5857 191.725C88.7421 192.569 87.5983 193.044 86.4053 193.045Z" fill="url(#paint5_linear_1930_5995)"/>
<path d="M98.4053 193.045C97.2122 193.044 96.0684 192.569 95.2248 191.725C94.3812 190.882 93.9066 189.738 93.9053 188.545V175.045C93.9053 173.851 94.3794 172.707 95.2233 171.863C96.0672 171.019 97.2118 170.545 98.4053 170.545C99.5987 170.545 100.743 171.019 101.587 171.863C102.431 172.707 102.905 173.851 102.905 175.045V188.545C102.904 189.738 102.429 190.882 101.586 191.725C100.742 192.569 99.5983 193.044 98.4053 193.045Z" fill="url(#paint6_linear_1930_5995)"/>
<path d="M110.405 193.045C109.212 193.044 108.068 192.569 107.225 191.725C106.381 190.882 105.907 189.738 105.905 188.545V175.045C105.905 173.851 106.379 172.707 107.223 171.863C108.067 171.019 109.212 170.545 110.405 170.545C111.599 170.545 112.743 171.019 113.587 171.863C114.431 172.707 114.905 173.851 114.905 175.045V188.545C114.904 189.738 114.429 190.882 113.586 191.725C112.742 192.569 111.598 193.044 110.405 193.045Z" fill="url(#paint7_linear_1930_5995)"/>
<path d="M128.905 193.045C127.712 193.044 126.568 192.569 125.725 191.725C124.881 190.882 124.407 189.738 124.405 188.545V175.045C124.405 173.851 124.879 172.707 125.723 171.863C126.567 171.019 127.712 170.545 128.905 170.545C130.099 170.545 131.243 171.019 132.087 171.863C132.931 172.707 133.405 173.851 133.405 175.045V188.545C133.404 189.738 132.929 190.882 132.086 191.725C131.242 192.569 130.098 193.044 128.905 193.045Z" fill="url(#paint8_linear_1930_5995)"/>
<path d="M140.905 193.045C139.712 193.044 138.568 192.569 137.725 191.725C136.881 190.882 136.407 189.738 136.405 188.545V175.045C136.405 173.851 136.879 172.707 137.723 171.863C138.567 171.019 139.712 170.545 140.905 170.545C142.099 170.545 143.243 171.019 144.087 171.863C144.931 172.707 145.405 173.851 145.405 175.045V188.545C145.404 189.738 144.929 190.882 144.086 191.725C143.242 192.569 142.098 193.044 140.905 193.045Z" fill="url(#paint9_linear_1930_5995)"/>
<path d="M152.905 193.045C151.712 193.044 150.568 192.569 149.725 191.725C148.881 190.882 148.407 189.738 148.405 188.545V175.045C148.405 173.851 148.879 172.707 149.723 171.863C150.567 171.019 151.712 170.545 152.905 170.545C154.099 170.545 155.243 171.019 156.087 171.863C156.931 172.707 157.405 173.851 157.405 175.045V188.545C157.404 189.738 156.929 190.882 156.086 191.725C155.242 192.569 154.098 193.044 152.905 193.045Z" fill="url(#paint10_linear_1930_5995)"/>
<path d="M171.405 193.045C170.212 193.044 169.068 192.569 168.225 191.725C167.381 190.882 166.907 189.738 166.905 188.545V175.045C166.905 173.851 167.379 172.707 168.223 171.863C169.067 171.019 170.212 170.545 171.405 170.545C172.599 170.545 173.743 171.019 174.587 171.863C175.431 172.707 175.905 173.851 175.905 175.045V188.545C175.904 189.738 175.429 190.882 174.586 191.725C173.742 192.569 172.598 193.044 171.405 193.045Z" fill="url(#paint11_linear_1930_5995)"/>
<path d="M183.405 193.045C182.212 193.044 181.068 192.569 180.225 191.725C179.381 190.882 178.907 189.738 178.905 188.545V175.045C178.905 173.851 179.379 172.707 180.223 171.863C181.067 171.019 182.212 170.545 183.405 170.545C184.599 170.545 185.743 171.019 186.587 171.863C187.431 172.707 187.905 173.851 187.905 175.045V188.545C187.904 189.738 187.429 190.882 186.586 191.725C185.742 192.569 184.598 193.044 183.405 193.045Z" fill="url(#paint12_linear_1930_5995)"/>
<path d="M195.405 193.045C194.212 193.044 193.068 192.569 192.225 191.725C191.381 190.882 190.907 189.738 190.905 188.545V175.045C190.905 173.851 191.379 172.707 192.223 171.863C193.067 171.019 194.212 170.545 195.405 170.545C196.599 170.545 197.743 171.019 198.587 171.863C199.431 172.707 199.905 173.851 199.905 175.045V188.545C199.904 189.738 199.429 190.882 198.586 191.725C197.742 192.569 196.598 193.044 195.405 193.045Z" fill="url(#paint13_linear_1930_5995)"/>
<path d="M213.905 193.045C212.712 193.044 211.568 192.569 210.725 191.725C209.881 190.882 209.407 189.738 209.405 188.545V175.045C209.405 173.851 209.879 172.707 210.723 171.863C211.567 171.019 212.712 170.545 213.905 170.545C215.099 170.545 216.243 171.019 217.087 171.863C217.931 172.707 218.405 173.851 218.405 175.045V188.545C218.404 189.738 217.929 190.882 217.086 191.725C216.242 192.569 215.098 193.044 213.905 193.045Z" fill="url(#paint14_linear_1930_5995)"/>
<path d="M225.905 193.045C224.712 193.044 223.568 192.569 222.725 191.725C221.881 190.882 221.407 189.738 221.405 188.545V175.045C221.405 173.851 221.879 172.707 222.723 171.863C223.567 171.019 224.712 170.545 225.905 170.545C227.099 170.545 228.243 171.019 229.087 171.863C229.931 172.707 230.405 173.851 230.405 175.045V188.545C230.404 189.738 229.929 190.882 229.086 191.725C228.242 192.569 227.098 193.044 225.905 193.045Z" fill="url(#paint15_linear_1930_5995)"/>
<path d="M237.905 193.045C236.712 193.044 235.568 192.569 234.725 191.725C233.881 190.882 233.407 189.738 233.405 188.545V175.045C233.405 173.851 233.879 172.707 234.723 171.863C235.567 171.019 236.712 170.545 237.905 170.545C239.099 170.545 240.243 171.019 241.087 171.863C241.931 172.707 242.405 173.851 242.405 175.045V188.545C242.404 189.738 241.929 190.882 241.086 191.725C240.242 192.569 239.098 193.044 237.905 193.045Z" fill="url(#paint16_linear_1930_5995)"/>
<path d="M116.914 243.129H52.1936C51.3917 243.129 50.6226 242.811 50.0555 242.244C49.4885 241.677 49.1699 240.908 49.1699 240.106C49.1699 239.304 49.4885 238.535 50.0555 237.968C50.6226 237.401 51.3917 237.082 52.1936 237.082H116.914C117.716 237.082 118.485 237.401 119.052 237.968C119.619 238.535 119.937 239.304 119.937 240.106C119.937 240.908 119.619 241.677 119.052 242.244C118.485 242.811 117.716 243.129 116.914 243.129Z" fill="#E6E6E6"/>
<path d="M96.1638 230.129H72.9436C72.1417 230.129 71.3726 229.811 70.8055 229.244C70.2385 228.677 69.9199 227.908 69.9199 227.106C69.9199 226.304 70.2385 225.535 70.8055 224.968C71.3726 224.401 72.1417 224.082 72.9436 224.082H96.1638C96.9657 224.082 97.7348 224.401 98.3018 224.968C98.8689 225.535 99.1874 226.304 99.1874 227.106C99.1874 227.908 98.8689 228.677 98.3018 229.244C97.7348 229.811 96.9657 230.129 96.1638 230.129Z" fill="#E6E6E6"/>
<path d="M282.405 138.545H35.9053V139.545H282.405V138.545Z" fill="#3F3D56"/>
</g>
<defs>
<linearGradient id="paint0_linear_1930_5995" x1="225.574" y1="76.9746" x2="225.574" y2="109.51" gradientUnits="userSpaceOnUse">
<stop stop-color="#FE5100"/>
<stop offset="1" stop-color="#BE4BFB"/>
</linearGradient>
<linearGradient id="paint1_linear_1930_5995" x1="28.8599" y1="68.082" x2="28.8599" y2="80.0813" gradientUnits="userSpaceOnUse">
<stop stop-color="#FE5100"/>
<stop offset="1" stop-color="#BE4BFB"/>
</linearGradient>
<linearGradient id="paint2_linear_1930_5995" x1="20.5814" y1="70.6562" x2="20.5814" y2="81.6563" gradientUnits="userSpaceOnUse">
<stop stop-color="#FE5100"/>
<stop offset="1" stop-color="#BE4BFB"/>
</linearGradient>
<linearGradient id="paint3_linear_1930_5995" x1="62.083" y1="116.156" x2="62.083" y2="128.156" gradientUnits="userSpaceOnUse">
<stop stop-color="#FE5100"/>
<stop offset="1" stop-color="#BE4BFB"/>
</linearGradient>
<linearGradient id="paint4_linear_1930_5995" x1="52.8168" y1="116.656" x2="52.8168" y2="127.656" gradientUnits="userSpaceOnUse">
<stop stop-color="#FE5100"/>
<stop offset="1" stop-color="#BE4BFB"/>
</linearGradient>
<linearGradient id="paint5_linear_1930_5995" x1="86.4053" y1="170.545" x2="86.4053" y2="193.045" gradientUnits="userSpaceOnUse">
<stop stop-color="#FE5100"/>
<stop offset="1" stop-color="#BE4BFB"/>
</linearGradient>
<linearGradient id="paint6_linear_1930_5995" x1="98.4053" y1="170.545" x2="98.4053" y2="193.045" gradientUnits="userSpaceOnUse">
<stop stop-color="#FE5100"/>
<stop offset="1" stop-color="#BE4BFB"/>
</linearGradient>
<linearGradient id="paint7_linear_1930_5995" x1="110.405" y1="170.545" x2="110.405" y2="193.045" gradientUnits="userSpaceOnUse">
<stop stop-color="#FE5100"/>
<stop offset="1" stop-color="#BE4BFB"/>
</linearGradient>
<linearGradient id="paint8_linear_1930_5995" x1="128.905" y1="170.545" x2="128.905" y2="193.045" gradientUnits="userSpaceOnUse">
<stop stop-color="#FE5100"/>
<stop offset="1" stop-color="#BE4BFB"/>
</linearGradient>
<linearGradient id="paint9_linear_1930_5995" x1="140.905" y1="170.545" x2="140.905" y2="193.045" gradientUnits="userSpaceOnUse">
<stop stop-color="#FE5100"/>
<stop offset="1" stop-color="#BE4BFB"/>
</linearGradient>
<linearGradient id="paint10_linear_1930_5995" x1="152.905" y1="170.545" x2="152.905" y2="193.045" gradientUnits="userSpaceOnUse">
<stop stop-color="#FE5100"/>
<stop offset="1" stop-color="#BE4BFB"/>
</linearGradient>
<linearGradient id="paint11_linear_1930_5995" x1="171.405" y1="170.545" x2="171.405" y2="193.045" gradientUnits="userSpaceOnUse">
<stop stop-color="#FE5100"/>
<stop offset="1" stop-color="#BE4BFB"/>
</linearGradient>
<linearGradient id="paint12_linear_1930_5995" x1="183.405" y1="170.545" x2="183.405" y2="193.045" gradientUnits="userSpaceOnUse">
<stop stop-color="#FE5100"/>
<stop offset="1" stop-color="#BE4BFB"/>
</linearGradient>
<linearGradient id="paint13_linear_1930_5995" x1="195.405" y1="170.545" x2="195.405" y2="193.045" gradientUnits="userSpaceOnUse">
<stop stop-color="#FE5100"/>
<stop offset="1" stop-color="#BE4BFB"/>
</linearGradient>
<linearGradient id="paint14_linear_1930_5995" x1="213.905" y1="170.545" x2="213.905" y2="193.045" gradientUnits="userSpaceOnUse">
<stop stop-color="#FE5100"/>
<stop offset="1" stop-color="#BE4BFB"/>
</linearGradient>
<linearGradient id="paint15_linear_1930_5995" x1="225.905" y1="170.545" x2="225.905" y2="193.045" gradientUnits="userSpaceOnUse">
<stop stop-color="#FE5100"/>
<stop offset="1" stop-color="#BE4BFB"/>
</linearGradient>
<linearGradient id="paint16_linear_1930_5995" x1="237.905" y1="170.545" x2="237.905" y2="193.045" gradientUnits="userSpaceOnUse">
<stop stop-color="#FE5100"/>
<stop offset="1" stop-color="#BE4BFB"/>
</linearGradient>
<clipPath id="clip0_1930_5995">
<rect width="283.585" height="258.655" fill="white"/>
</clipPath>
</defs>
</svg>
