<svg width="25" height="24" viewBox="0 0 25 24" fill="none" xmlns="http://www.w3.org/2000/svg">
<path d="M20.3975 16.1041C20.5028 16.2096 20.562 16.3525 20.562 16.5016C20.562 16.6507 20.5028 16.7936 20.3975 16.8991L17.3975 19.8991C17.2909 19.9985 17.1498 20.0525 17.0041 20.05C16.8584 20.0474 16.7193 19.9884 16.6163 19.8853C16.5132 19.7823 16.4542 19.6432 16.4516 19.4975C16.449 19.3518 16.5031 19.2107 16.6025 19.1041L18.6416 17.0641H5C4.85082 17.0641 4.70774 17.0048 4.60225 16.8993C4.49676 16.7939 4.4375 16.6508 4.4375 16.5016C4.4375 16.3524 4.49676 16.2093 4.60225 16.1038C4.70774 15.9984 4.85082 15.9391 5 15.9391H18.6416L16.6025 13.8991C16.5031 13.7925 16.449 13.6514 16.4516 13.5057C16.4542 13.36 16.5132 13.2209 16.6163 13.1179C16.7193 13.0148 16.8584 12.9558 17.0041 12.9532C17.1498 12.9506 17.2909 13.0047 17.3975 13.1041L20.3975 16.1041ZM7.6025 10.8991C7.70913 10.9985 7.85017 11.0525 7.99589 11.05C8.14162 11.0474 8.28066 10.9884 8.38372 10.8853C8.48678 10.7823 8.54581 10.6432 8.54838 10.4975C8.55095 10.3518 8.49686 10.2107 8.3975 10.1041L6.35844 8.06409H20C20.1492 8.06409 20.2923 8.00483 20.3977 7.89934C20.5032 7.79385 20.5625 7.65078 20.5625 7.50159C20.5625 7.35241 20.5032 7.20934 20.3977 7.10385C20.2923 6.99836 20.1492 6.93909 20 6.93909H6.35844L8.3975 4.89909C8.49686 4.79246 8.55095 4.65143 8.54838 4.5057C8.54581 4.35998 8.48678 4.22094 8.38372 4.11788C8.28066 4.01482 8.14162 3.95578 7.99589 3.95321C7.85017 3.95064 7.70913 4.00473 7.6025 4.10409L4.6025 7.10409C4.49716 7.20956 4.43799 7.35253 4.43799 7.50159C4.43799 7.65066 4.49716 7.79362 4.6025 7.89909L7.6025 10.8991Z" fill="url(#paint0_linear_1514_1822)"/>
<defs>
<linearGradient id="paint0_linear_1514_1822" x1="12.5" y1="3.95312" x2="12.5" y2="20.0501" gradientUnits="userSpaceOnUse">
<stop stop-color="#FE5100"/>
<stop offset="1" stop-color="#BE4BFB"/>
</linearGradient>
</defs>
</svg>
