<svg width="60" height="60" viewBox="0 0 60 60" fill="none" xmlns="http://www.w3.org/2000/svg">
<path d="M44.5312 27.1875C44.5312 27.6511 44.3938 28.1042 44.1363 28.4896C43.8787 28.875 43.5127 29.1754 43.0844 29.3528C42.6561 29.5302 42.1849 29.5767 41.7303 29.4862C41.2756 29.3958 40.858 29.1726 40.5302 28.8448C40.2024 28.517 39.9792 28.0994 39.8888 27.6447C39.7984 27.1901 39.8448 26.7188 40.0222 26.2906C40.1996 25.8623 40.5 25.4963 40.8854 25.2387C41.2708 24.9812 41.7239 24.8438 42.1875 24.8438C42.8091 24.8438 43.4052 25.0907 43.8448 25.5302C44.2843 25.9698 44.5312 26.5659 44.5312 27.1875ZM35.625 15.4688H26.25C25.877 15.4688 25.5194 15.6169 25.2556 15.8806C24.9919 16.1444 24.8438 16.502 24.8438 16.875C24.8438 17.248 24.9919 17.6056 25.2556 17.8694C25.5194 18.1331 25.877 18.2812 26.25 18.2812H35.625C35.998 18.2812 36.3556 18.1331 36.6194 17.8694C36.8831 17.6056 37.0312 17.248 37.0312 16.875C37.0312 16.502 36.8831 16.1444 36.6194 15.8806C36.3556 15.6169 35.998 15.4688 35.625 15.4688ZM57.6562 26.25V33.75C57.6562 35.1175 57.113 36.429 56.146 37.396C55.179 38.363 53.8675 38.9062 52.5 38.9062H51.6164L47.707 49.8539C47.4793 50.4914 47.0599 51.0428 46.5065 51.4326C45.953 51.8225 45.2926 52.0315 44.6156 52.0312H41.6344C40.9574 52.0315 40.297 51.8225 39.7435 51.4326C39.1901 51.0428 38.7707 50.4914 38.543 49.8539L37.9828 48.2812H23.8922L23.332 49.8539C23.1043 50.4914 22.6849 51.0428 22.1315 51.4326C21.578 51.8225 20.9176 52.0315 20.2406 52.0312H17.2594C16.5824 52.0315 15.922 51.8225 15.3685 51.4326C14.8151 51.0428 14.3957 50.4914 14.168 49.8539L11.1937 41.5266C8.27698 38.2555 6.50984 34.1204 6.16172 29.7516C5.32312 30.0321 4.59386 30.569 4.07699 31.2865C3.56011 32.004 3.28176 32.8657 3.28125 33.75C3.28125 34.123 3.13309 34.4806 2.86937 34.7444C2.60565 35.0081 2.24796 35.1562 1.875 35.1562C1.50204 35.1562 1.14435 35.0081 0.880631 34.7444C0.616908 34.4806 0.46875 34.123 0.46875 33.75C0.46886 32.1216 1.03417 30.5437 2.06816 29.2858C3.10215 28.0278 4.54072 27.1677 6.13828 26.8523C6.46732 21.7398 8.72855 16.9439 12.4634 13.4371C16.1982 9.93039 21.1269 7.97543 26.25 7.96875H50.625C50.998 7.96875 51.3556 8.11691 51.6194 8.38063C51.8831 8.64435 52.0312 9.00204 52.0312 9.375C52.0312 9.74796 51.8831 10.1056 51.6194 10.3694C51.3556 10.6331 50.998 10.7812 50.625 10.7812H44.0203C47.6809 12.9458 50.5624 16.2136 52.2516 20.1164C52.3922 20.4398 52.5234 20.7656 52.6453 21.0961C53.9871 21.1339 55.2612 21.6935 56.1969 22.6559C57.1326 23.6183 57.6562 24.9077 57.6562 26.25ZM54.8438 26.25C54.8438 25.6284 54.5968 25.0323 54.1573 24.5927C53.7177 24.1532 53.1216 23.9062 52.5 23.9062H51.6422C51.3427 23.9066 51.0509 23.8113 50.8093 23.6342C50.5678 23.4571 50.3891 23.2076 50.2992 22.9219C50.1202 22.3493 49.9105 21.7868 49.6711 21.2367C48.3269 18.1306 46.1033 15.4856 43.2743 13.6278C40.4453 11.77 37.1345 10.7805 33.75 10.7812H26.25C22.8838 10.7809 19.5903 11.7602 16.7712 13.5995C13.952 15.4389 11.729 18.0589 10.3733 21.14C9.01762 24.2211 8.58784 27.6301 9.13638 30.9513C9.68492 34.2725 11.1881 37.3622 13.4625 39.8438C13.5887 39.979 13.6859 40.1385 13.7484 40.3125L16.8164 48.9C16.8477 48.9927 16.9073 49.0733 16.9867 49.1305C17.0662 49.1876 17.1615 49.2185 17.2594 49.2188H20.2406C20.3376 49.219 20.4324 49.1892 20.5117 49.1333C20.591 49.0775 20.6511 48.9984 20.6836 48.907L21.5766 46.4062C21.6734 46.1323 21.8527 45.8951 22.0898 45.7273C22.327 45.5594 22.6103 45.4691 22.9008 45.4688H38.9742C39.2647 45.4691 39.548 45.5594 39.7852 45.7273C40.0223 45.8951 40.2016 46.1323 40.2984 46.4062L41.1914 48.9117C41.2239 49.0031 41.284 49.0822 41.3633 49.138C41.4426 49.1939 41.5374 49.2237 41.6344 49.2234H44.6156C44.7126 49.2237 44.8074 49.1939 44.8867 49.138C44.966 49.0822 45.0261 49.0031 45.0586 48.9117L49.3008 37.0312C49.3976 36.7573 49.5769 36.5201 49.814 36.3523C50.0512 36.1844 50.3345 36.0941 50.625 36.0938H52.5C53.1216 36.0938 53.7177 35.8468 54.1573 35.4073C54.5968 34.9677 54.8438 34.3716 54.8438 33.75V26.25Z" fill="url(#paint0_linear_2442_1192)"/>
<defs>
<linearGradient id="paint0_linear_2442_1192" x1="0.468749" y1="30" x2="57.6562" y2="30" gradientUnits="userSpaceOnUse">
<stop stop-color="#BE4BFB"/>
<stop offset="1" stop-color="#0EB6CF"/>
</linearGradient>
</defs>
</svg>
