<svg width="24" height="24" viewBox="0 0 24 24" fill="none" xmlns="http://www.w3.org/2000/svg">
<path d="M21.6452 10.8446L5.89521 1.85589C5.66255 1.72696 5.39621 1.67177 5.13148 1.69762C4.86675 1.72347 4.61612 1.82915 4.41279 2.00065C4.20947 2.17215 4.06306 2.40138 3.99295 2.65797C3.92284 2.91456 3.93235 3.18639 4.02021 3.43745L6.90584 11.9987L4.01365 20.5609C3.94362 20.7588 3.92209 20.9706 3.95086 21.1786C3.97963 21.3865 4.05787 21.5846 4.17901 21.756C4.30015 21.9275 4.46064 22.0674 4.64704 22.164C4.83343 22.2606 5.04028 22.3111 5.25021 22.3112C5.47791 22.3107 5.70165 22.2516 5.8999 22.1396L21.6415 13.1331C21.8446 13.0189 22.0136 12.8528 22.1313 12.6517C22.249 12.4506 22.311 12.2218 22.311 11.9889C22.311 11.7559 22.249 11.5271 22.1313 11.326C22.0136 11.1249 21.8446 10.9588 21.6415 10.8446H21.6452ZM21.0874 12.1571L5.34396 21.1609C5.31064 21.1796 5.27241 21.1876 5.23439 21.1839C5.19637 21.1803 5.16038 21.1651 5.13122 21.1404C5.10206 21.1158 5.08114 21.0828 5.07124 21.0459C5.06134 21.009 5.06295 20.97 5.07584 20.934C5.07621 20.9309 5.07621 20.9278 5.07584 20.9246L7.90334 12.5612H13.5002C13.6494 12.5612 13.7925 12.5019 13.898 12.3965C14.0035 12.291 14.0627 12.1479 14.0627 11.9987C14.0627 11.8495 14.0035 11.7064 13.898 11.601C13.7925 11.4955 13.6494 11.4362 13.5002 11.4362H7.90334L5.07865 3.0737C5.07917 3.0706 5.07917 3.06743 5.07865 3.06433C5.06397 3.02856 5.06153 2.98894 5.0717 2.95164C5.08187 2.91434 5.10409 2.88144 5.1349 2.85808C5.16237 2.8318 5.1977 2.81528 5.23547 2.81104C5.27324 2.80681 5.31136 2.8151 5.34396 2.83464L21.094 11.8243C21.123 11.8403 21.1472 11.864 21.1637 11.8927C21.1802 11.9215 21.1885 11.9543 21.1877 11.9875C21.1879 12.0218 21.1786 12.0555 21.1609 12.0849C21.1432 12.1144 21.1178 12.1384 21.0874 12.1543V12.1571Z" fill="url(#paint0_linear_2041_28734)"/>
<defs>
<linearGradient id="paint0_linear_2041_28734" x1="3.93848" y1="12.0013" x2="22.311" y2="12.0013" gradientUnits="userSpaceOnUse">
<stop stop-color="#BE4BFB"/>
<stop offset="1" stop-color="#0EB6CF"/>
</linearGradient>
</defs>
</svg>
