<svg width="60" height="60" viewBox="0 0 60 60" fill="none" xmlns="http://www.w3.org/2000/svg">
<path d="M52.0312 11.25V35.625C52.0312 36.4952 51.6855 37.3298 51.0702 37.9452C50.4548 38.5605 49.6202 38.9062 48.75 38.9062H22.1461L25.3687 42.1312C25.5069 42.26 25.6177 42.4152 25.6946 42.5877C25.7715 42.7602 25.8128 42.9465 25.8161 43.1353C25.8194 43.3241 25.7847 43.5116 25.714 43.6867C25.6433 43.8618 25.538 44.0209 25.4044 44.1544C25.2709 44.288 25.1118 44.3933 24.9367 44.464C24.7616 44.5347 24.5741 44.5694 24.3853 44.5661C24.1965 44.5628 24.0102 44.5215 23.8377 44.4446C23.6652 44.3677 23.51 44.2569 23.3813 44.1188L17.7563 38.4938C17.4929 38.2301 17.345 37.8727 17.345 37.5C17.345 37.1273 17.4929 36.7699 17.7563 36.5062L23.3813 30.8812C23.6478 30.6328 24.0004 30.4976 24.3647 30.504C24.729 30.5105 25.0766 30.6581 25.3343 30.9157C25.5919 31.1734 25.7395 31.521 25.746 31.8853C25.7524 32.2496 25.6171 32.6022 25.3687 32.8688L22.1461 36.0938H48.75C48.8743 36.0938 48.9935 36.0444 49.0815 35.9565C49.1694 35.8685 49.2188 35.7493 49.2188 35.625V11.25C49.2188 11.1257 49.1694 11.0065 49.0815 10.9185C48.9935 10.8306 48.8743 10.7812 48.75 10.7812H22.5C22.3757 10.7812 22.2565 10.8306 22.1685 10.9185C22.0806 11.0065 22.0312 11.1257 22.0312 11.25V13.125C22.0312 13.498 21.8831 13.8556 21.6194 14.1194C21.3556 14.3831 20.998 14.5312 20.625 14.5312C20.252 14.5312 19.8944 14.3831 19.6306 14.1194C19.3669 13.8556 19.2188 13.498 19.2188 13.125V11.25C19.2188 10.3798 19.5645 9.54516 20.1798 8.92981C20.7952 8.31445 21.6298 7.96875 22.5 7.96875H48.75C49.6202 7.96875 50.4548 8.31445 51.0702 8.92981C51.6855 9.54516 52.0312 10.3798 52.0312 11.25ZM39.375 45.4688C39.002 45.4688 38.6444 45.6169 38.3806 45.8806C38.1169 46.1444 37.9688 46.502 37.9688 46.875V48.75C37.9688 48.8743 37.9194 48.9935 37.8315 49.0815C37.7435 49.1694 37.6243 49.2188 37.5 49.2188H11.25C11.1257 49.2188 11.0065 49.1694 10.9185 49.0815C10.8306 48.9935 10.7812 48.8743 10.7812 48.75V24.375C10.7812 24.2507 10.8306 24.1315 10.9185 24.0435C11.0065 23.9556 11.1257 23.9062 11.25 23.9062H37.8539L34.6312 27.1313C34.4931 27.26 34.3823 27.4152 34.3054 27.5877C34.2285 27.7602 34.1872 27.9465 34.1839 28.1353C34.1806 28.3241 34.2153 28.5116 34.286 28.6867C34.3567 28.8618 34.462 29.0209 34.5956 29.1544C34.7291 29.288 34.8882 29.3933 35.0633 29.464C35.2384 29.5347 35.4259 29.5694 35.6147 29.5661C35.8035 29.5628 35.9898 29.5215 36.1623 29.4446C36.3348 29.3677 36.49 29.2569 36.6188 29.1187L42.2438 23.4937C42.5071 23.2301 42.655 22.8727 42.655 22.5C42.655 22.1273 42.5071 21.7699 42.2438 21.5063L36.6188 15.8813C36.3522 15.6329 35.9996 15.4976 35.6353 15.504C35.271 15.5105 34.9234 15.6581 34.6657 15.9157C34.4081 16.1734 34.2605 16.521 34.254 16.8853C34.2476 17.2496 34.3828 17.6022 34.6312 17.8687L37.8539 21.0938H11.25C10.3798 21.0938 9.54516 21.4395 8.92981 22.0548C8.31445 22.6702 7.96875 23.5048 7.96875 24.375V48.75C7.96875 49.6202 8.31445 50.4548 8.92981 51.0702C9.54516 51.6855 10.3798 52.0312 11.25 52.0312H37.5C38.3702 52.0312 39.2048 51.6855 39.8202 51.0702C40.4355 50.4548 40.7812 49.6202 40.7812 48.75V46.875C40.7812 46.502 40.6331 46.1444 40.3694 45.8806C40.1056 45.6169 39.748 45.4688 39.375 45.4688Z" fill="url(#paint0_linear_1911_1431)"/>
<defs>
<linearGradient id="paint0_linear_1911_1431" x1="7.96875" y1="30" x2="52.0312" y2="30" gradientUnits="userSpaceOnUse">
<stop stop-color="#BE4BFB"/>
<stop offset="1" stop-color="#0EB6CF"/>
</linearGradient>
</defs>
</svg>
