<svg width="46" height="47" viewBox="0 0 46 47" fill="none" xmlns="http://www.w3.org/2000/svg">
<path d="M41.5156 0.84375H4.48438C3.55197 0.84375 2.65776 1.21415 1.99845 1.87345C1.33915 2.53276 0.96875 3.42697 0.96875 4.35937V15.893C0.968937 16.5677 1.16328 17.2281 1.52859 17.7954C1.89389 18.3627 2.41472 18.8129 3.02891 19.0922L18.5914 26.1562C16.3393 27.1654 14.5016 28.9166 13.3851 31.1175C12.2686 33.3184 11.941 35.8357 12.457 38.249C12.973 40.6624 14.3013 42.8256 16.2201 44.3776C18.139 45.9295 20.5321 46.7762 23 46.7762C25.4679 46.7762 27.861 45.9295 29.7799 44.3776C31.6987 42.8256 33.027 40.6624 33.543 38.249C34.0589 35.8357 33.7314 33.3184 32.6149 31.1175C31.4984 28.9166 29.6607 27.1654 27.4086 26.1562L42.9711 19.0828C43.5838 18.8041 44.1037 18.3554 44.4689 17.79C44.8341 17.2245 45.0293 16.5661 45.0312 15.893V4.35937C45.0312 3.42697 44.6609 2.53276 44.0015 1.87345C43.3422 1.21415 42.448 0.84375 41.5156 0.84375ZM30.9688 3.65625V21.4687L23 25.0898L15.0312 21.4687V3.65625H30.9688ZM3.78125 15.893V4.35937C3.78125 4.17289 3.85533 3.99405 3.98719 3.86219C4.11905 3.73033 4.29789 3.65625 4.48438 3.65625H12.2188V20.1797L4.19375 16.5328C4.07082 16.477 3.96656 16.387 3.89341 16.2735C3.82027 16.1601 3.78133 16.028 3.78125 15.893ZM30.9688 36C30.9688 37.5761 30.5014 39.1167 29.6258 40.4272C28.7502 41.7377 27.5056 42.759 26.0495 43.3622C24.5934 43.9653 22.9912 44.1231 21.4454 43.8156C19.8996 43.5082 18.4797 42.7492 17.3652 41.6348C16.2508 40.5203 15.4918 39.1004 15.1844 37.5546C14.8769 36.0088 15.0347 34.4066 15.6378 32.9505C16.241 31.4944 17.2623 30.2498 18.5728 29.3742C19.8833 28.4986 21.4239 28.0312 23 28.0312C25.1134 28.0312 27.1403 28.8708 28.6348 30.3652C30.1292 31.8597 30.9688 33.8866 30.9688 36ZM42.2188 15.893C42.2187 16.028 42.1797 16.1601 42.1066 16.2735C42.0334 16.387 41.9292 16.477 41.8063 16.5328L33.7812 20.1797V3.65625H41.5156C41.7021 3.65625 41.8809 3.73033 42.0128 3.86219C42.1447 3.99405 42.2188 4.17289 42.2188 4.35937V15.893Z" fill="url(#paint0_linear_1646_2991)"/>
<defs>
<linearGradient id="paint0_linear_1646_2991" x1="0.96875" y1="23.81" x2="45.0312" y2="23.81" gradientUnits="userSpaceOnUse">
<stop stop-color="#BE4BFB"/>
<stop offset="1" stop-color="#0EB6CF"/>
</linearGradient>
</defs>
</svg>
