<svg width="60" height="60" viewBox="0 0 60 60" fill="none" xmlns="http://www.w3.org/2000/svg">
<path d="M55.0944 44.3173L34.5959 8.72273C34.1251 7.92221 33.4534 7.25854 32.6473 6.79743C31.8411 6.33631 30.9285 6.09375 29.9998 6.09375C29.0711 6.09375 28.1585 6.33631 27.3524 6.79743C26.5462 7.25854 25.8745 7.92221 25.4037 8.72273L4.90529 44.3173C4.45409 45.0896 4.21631 45.9681 4.21631 46.8626C4.21631 47.7571 4.45409 48.6355 4.90529 49.4079C5.3698 50.214 6.04064 50.8819 6.84883 51.3428C7.65702 51.8038 8.57339 52.0412 9.50373 52.0305H50.4959C51.4255 52.0403 52.3409 51.8026 53.1482 51.3417C53.9554 50.8808 54.6255 50.2133 55.0897 49.4079C55.5416 48.6359 55.7802 47.7577 55.781 46.8632C55.7818 45.9687 55.5448 45.09 55.0944 44.3173ZM52.6545 47.9993C52.4355 48.3759 52.12 48.6874 51.7406 48.9016C51.3612 49.1158 50.9316 49.225 50.4959 49.218H9.50373C9.06808 49.225 8.63844 49.1158 8.25904 48.9016C7.87964 48.6874 7.56418 48.3759 7.34513 47.9993C7.14024 47.6547 7.0321 47.2612 7.0321 46.8602C7.0321 46.4593 7.14024 46.0658 7.34513 45.7212L27.8412 10.1266C28.0653 9.75441 28.3818 9.44645 28.76 9.23267C29.1383 9.01888 29.5654 8.90653 29.9998 8.90653C30.4343 8.90653 30.8614 9.01888 31.2396 9.23267C31.6178 9.44645 31.9343 9.75441 32.1584 10.1266L52.6569 45.7212C52.8614 46.066 52.9691 46.4596 52.9687 46.8606C52.9683 47.2615 52.8598 47.6549 52.6545 47.9993ZM28.5936 33.7493V24.3743C28.5936 24.0013 28.7417 23.6437 29.0055 23.3799C29.2692 23.1162 29.6269 22.968 29.9998 22.968C30.3728 22.968 30.7305 23.1162 30.9942 23.3799C31.2579 23.6437 31.4061 24.0013 31.4061 24.3743V33.7493C31.4061 34.1223 31.2579 34.4799 30.9942 34.7437C30.7305 35.0074 30.3728 35.1555 29.9998 35.1555C29.6269 35.1555 29.2692 35.0074 29.0055 34.7437C28.7417 34.4799 28.5936 34.1223 28.5936 33.7493ZM32.3436 42.1868C32.3436 42.6503 32.2061 43.1035 31.9486 43.4889C31.691 43.8743 31.325 44.1747 30.8967 44.3521C30.4685 44.5295 29.9972 44.5759 29.5426 44.4855C29.0879 44.3951 28.6703 44.1719 28.3425 43.8441C28.0148 43.5163 27.7915 43.0987 27.7011 42.644C27.6107 42.1894 27.6571 41.7182 27.8345 41.2899C28.0119 40.8616 28.3123 40.4956 28.6977 40.238C29.0831 39.9805 29.5363 39.843 29.9998 39.843C30.6214 39.843 31.2176 40.09 31.6571 40.5295C32.0966 40.969 32.3436 41.5652 32.3436 42.1868Z" fill="url(#paint0_linear_1911_1422)"/>
<defs>
<linearGradient id="paint0_linear_1911_1422" x1="4.21631" y1="29.0623" x2="55.781" y2="29.0623" gradientUnits="userSpaceOnUse">
<stop stop-color="#BE4BFB"/>
<stop offset="1" stop-color="#0EB6CF"/>
</linearGradient>
</defs>
</svg>
